<mxfile host="65bd71144e">
    <diagram id="ee_vq7kWK6rEqI_DxcDo" name="Page-1">
        <mxGraphModel dx="884" dy="863" grid="0" gridSize="10" guides="1" tooltips="1" connect="1" arrows="1" fold="1" page="1" pageScale="1" pageWidth="827" pageHeight="1169" background="#ffffff" math="0" shadow="0">
            <root>
                <mxCell id="0"/>
                <mxCell id="1" parent="0"/>
                <mxCell id="8" style="edgeStyle=none;html=1;entryX=0.5;entryY=0;entryDx=0;entryDy=0;fontColor=#000000;strokeColor=#000000;strokeWidth=1;" parent="1" source="6" target="7" edge="1">
                    <mxGeometry relative="1" as="geometry"/>
                </mxCell>
                <mxCell id="6" value="&lt;font color=&quot;#000000&quot;&gt;START&lt;/font&gt;" style="rounded=1;whiteSpace=wrap;html=1;fillColor=#d5e8d4;strokeColor=#82b366;glass=0;shadow=0;arcSize=50;imageHeight=24;" parent="1" vertex="1">
                    <mxGeometry x="380" y="100" width="70" height="30" as="geometry"/>
                </mxCell>
                <mxCell id="16" style="edgeStyle=none;html=1;entryX=0;entryY=0;entryDx=48.75;entryDy=0;entryPerimeter=0;strokeColor=#000000;strokeWidth=1;fontColor=#000000;" parent="1" source="7" target="9" edge="1">
                    <mxGeometry relative="1" as="geometry"/>
                </mxCell>
                <mxCell id="7" value="&lt;font color=&quot;#000000&quot;&gt;int a, b&lt;/font&gt;" style="shape=hexagon;perimeter=hexagonPerimeter2;whiteSpace=wrap;html=1;fixedSize=1;fillColor=#fff2cc;strokeColor=#d6b656;" parent="1" vertex="1">
                    <mxGeometry x="367.5" y="160" width="95" height="30" as="geometry"/>
                </mxCell>
                <mxCell id="9" value="&lt;font color=&quot;#000000&quot;&gt;&amp;nbsp; &amp;nbsp;&quot;Input A = &quot;&lt;/font&gt;" style="shape=display;whiteSpace=wrap;html=1;rounded=1;shadow=0;glass=0;sketch=0;fillColor=#ffe6cc;strokeColor=#d79b00;" parent="1" vertex="1">
                    <mxGeometry x="366" y="218" width="94" height="40" as="geometry"/>
                </mxCell>
                <mxCell id="11" value="&lt;font color=&quot;#000000&quot;&gt;a&lt;/font&gt;" style="shape=manualInput;whiteSpace=wrap;html=1;rounded=0;shadow=0;glass=0;sketch=0;fillColor=#dae8fc;strokeColor=#6c8ebf;size=13;" parent="1" vertex="1">
                    <mxGeometry x="389" y="280" width="50" height="30" as="geometry"/>
                </mxCell>
                <mxCell id="20" style="edgeStyle=none;html=1;entryX=0;entryY=0;entryDx=48.75;entryDy=0;entryPerimeter=0;strokeColor=#000000;strokeWidth=1;fontColor=#000000;" parent="1" edge="1">
                    <mxGeometry relative="1" as="geometry">
                        <mxPoint x="414.8727906976745" y="258" as="sourcePoint"/>
                        <mxPoint x="414.71" y="286" as="targetPoint"/>
                    </mxGeometry>
                </mxCell>
                <mxCell id="21" style="edgeStyle=none;html=1;entryX=0;entryY=0;entryDx=48.75;entryDy=0;entryPerimeter=0;strokeColor=#000000;strokeWidth=1;fontColor=#000000;" parent="1" target="22" edge="1">
                    <mxGeometry relative="1" as="geometry">
                        <mxPoint x="414.9127906976745" y="310" as="sourcePoint"/>
                    </mxGeometry>
                </mxCell>
                <mxCell id="22" value="&lt;font color=&quot;#000000&quot;&gt;&amp;nbsp; &amp;nbsp;&quot;Input B = &quot;&lt;/font&gt;" style="shape=display;whiteSpace=wrap;html=1;rounded=1;shadow=0;glass=0;sketch=0;fillColor=#ffe6cc;strokeColor=#d79b00;" parent="1" vertex="1">
                    <mxGeometry x="366" y="338" width="94" height="40" as="geometry"/>
                </mxCell>
                <mxCell id="23" value="&lt;font color=&quot;#000000&quot;&gt;b&lt;/font&gt;" style="shape=manualInput;whiteSpace=wrap;html=1;rounded=0;shadow=0;glass=0;sketch=0;fillColor=#dae8fc;strokeColor=#6c8ebf;size=13;" parent="1" vertex="1">
                    <mxGeometry x="389" y="400" width="50" height="30" as="geometry"/>
                </mxCell>
                <mxCell id="24" style="edgeStyle=none;html=1;entryX=0;entryY=0;entryDx=48.75;entryDy=0;entryPerimeter=0;strokeColor=#000000;strokeWidth=1;fontColor=#000000;" parent="1" edge="1">
                    <mxGeometry relative="1" as="geometry">
                        <mxPoint x="414.8727906976744" y="378" as="sourcePoint"/>
                        <mxPoint x="414.71000000000004" y="406" as="targetPoint"/>
                    </mxGeometry>
                </mxCell>
                <mxCell id="26" style="edgeStyle=none;html=1;entryX=0;entryY=0;entryDx=48.75;entryDy=0;entryPerimeter=0;strokeColor=#000000;strokeWidth=1;fontColor=#000000;" parent="1" edge="1">
                    <mxGeometry relative="1" as="geometry">
                        <mxPoint x="414.8727906976744" y="430" as="sourcePoint"/>
                        <mxPoint x="414.71000000000004" y="458" as="targetPoint"/>
                    </mxGeometry>
                </mxCell>
                <mxCell id="27" value="&lt;font color=&quot;#000000&quot;&gt;a == b&lt;/font&gt;" style="html=1;whiteSpace=wrap;aspect=fixed;shape=isoRectangle;rounded=0;shadow=0;glass=0;sketch=0;fillColor=#e1d5e7;strokeColor=#9673a6;" parent="1" vertex="1">
                    <mxGeometry x="353.34" y="456" width="123.33" height="74" as="geometry"/>
                </mxCell>
                <mxCell id="29" value="&lt;font color=&quot;#000000&quot;&gt;&quot;A is equal B&quot;&lt;/font&gt;" style="shape=display;whiteSpace=wrap;html=1;rounded=1;shadow=0;glass=0;sketch=0;fillColor=#ffe6cc;strokeColor=#d79b00;" parent="1" vertex="1">
                    <mxGeometry x="235" y="543" width="130" height="40" as="geometry"/>
                </mxCell>
                <mxCell id="30" value="&lt;span style=&quot;color: rgb(0, 0, 0);&quot;&gt;&quot;A is not equal B&quot;&lt;/span&gt;" style="shape=display;whiteSpace=wrap;html=1;rounded=1;shadow=0;glass=0;sketch=0;fillColor=#ffe6cc;strokeColor=#d79b00;" parent="1" vertex="1">
                    <mxGeometry x="460" y="544" width="130" height="40" as="geometry"/>
                </mxCell>
                <mxCell id="32" value="" style="edgeStyle=segmentEdgeStyle;endArrow=classic;html=1;curved=0;rounded=0;endSize=8;startSize=8;strokeColor=#000000;strokeWidth=1;fontColor=#000000;" parent="1" edge="1">
                    <mxGeometry width="50" height="50" relative="1" as="geometry">
                        <mxPoint x="353.34" y="493" as="sourcePoint"/>
                        <mxPoint x="303.34" y="543" as="targetPoint"/>
                    </mxGeometry>
                </mxCell>
                <mxCell id="33" value="" style="edgeStyle=segmentEdgeStyle;endArrow=classic;html=1;curved=0;rounded=0;endSize=8;startSize=8;strokeColor=#000000;strokeWidth=1;fontColor=#000000;" parent="1" edge="1">
                    <mxGeometry width="50" height="50" relative="1" as="geometry">
                        <mxPoint x="476.67" y="493" as="sourcePoint"/>
                        <mxPoint x="530" y="543" as="targetPoint"/>
                        <Array as="points">
                            <mxPoint x="530" y="493"/>
                            <mxPoint x="530" y="543"/>
                        </Array>
                    </mxGeometry>
                </mxCell>
                <mxCell id="39" style="edgeStyle=none;html=1;strokeColor=#000000;strokeWidth=1;fontColor=#000000;" parent="1" source="35" edge="1">
                    <mxGeometry relative="1" as="geometry">
                        <mxPoint x="413" y="660" as="targetPoint"/>
                    </mxGeometry>
                </mxCell>
                <mxCell id="35" value="" style="ellipse;whiteSpace=wrap;html=1;aspect=fixed;rounded=0;shadow=0;glass=0;sketch=0;fillColor=#e1d5e7;strokeColor=#9673a6;" parent="1" vertex="1">
                    <mxGeometry x="400.5" y="600" width="25" height="25" as="geometry"/>
                </mxCell>
                <mxCell id="36" value="" style="edgeStyle=segmentEdgeStyle;endArrow=classic;html=1;curved=0;rounded=0;endSize=8;startSize=8;strokeColor=#000000;strokeWidth=1;fontColor=#000000;" parent="1" edge="1">
                    <mxGeometry width="50" height="50" relative="1" as="geometry">
                        <mxPoint x="304" y="583" as="sourcePoint"/>
                        <mxPoint x="400" y="613" as="targetPoint"/>
                        <Array as="points">
                            <mxPoint x="304" y="593"/>
                            <mxPoint x="304" y="613"/>
                        </Array>
                    </mxGeometry>
                </mxCell>
                <mxCell id="38" value="" style="edgeStyle=segmentEdgeStyle;endArrow=classic;html=1;curved=0;rounded=0;endSize=8;startSize=8;strokeColor=#000000;strokeWidth=1;fontColor=#000000;entryX=1;entryY=0.5;entryDx=0;entryDy=0;" parent="1" edge="1">
                    <mxGeometry width="50" height="50" relative="1" as="geometry">
                        <mxPoint x="530" y="583.9999999999999" as="sourcePoint"/>
                        <mxPoint x="425.50000000000045" y="613.5" as="targetPoint"/>
                        <Array as="points">
                            <mxPoint x="530" y="614"/>
                        </Array>
                    </mxGeometry>
                </mxCell>
                <mxCell id="40" value="&lt;font color=&quot;#000000&quot;&gt;END&lt;/font&gt;" style="rounded=1;whiteSpace=wrap;html=1;fillColor=#f8cecc;strokeColor=#b85450;glass=0;shadow=0;arcSize=50;imageHeight=24;" parent="1" vertex="1">
                    <mxGeometry x="378" y="660" width="70" height="30" as="geometry"/>
                </mxCell>
                <mxCell id="41" value="&lt;font style=&quot;font-size: 9px;&quot; color=&quot;#000000&quot;&gt;TRUE&lt;/font&gt;" style="text;html=1;align=center;verticalAlign=middle;resizable=0;points=[];autosize=1;strokeColor=none;fillColor=none;" vertex="1" parent="1">
                    <mxGeometry x="318" y="464" width="43" height="26" as="geometry"/>
                </mxCell>
                <mxCell id="42" value="&lt;font style=&quot;font-size: 9px;&quot; color=&quot;#000000&quot;&gt;FALSE&lt;/font&gt;" style="text;html=1;align=center;verticalAlign=middle;resizable=0;points=[];autosize=1;strokeColor=none;fillColor=none;" vertex="1" parent="1">
                    <mxGeometry x="465.5" y="464" width="46" height="26" as="geometry"/>
                </mxCell>
            </root>
        </mxGraphModel>
    </diagram>
</mxfile>